<svg width="20" height="20" viewBox="0 0 20 20" fill="none" xmlns="http://www.w3.org/2000/svg">
<path d="M15.7242 15.749C14.9569 16.8649 14.1434 17.9538 12.9046 17.9718C11.6658 17.9988 11.2683 17.2609 9.86313 17.2609C8.44869 17.2609 8.01419 17.9538 6.84012 17.9988C5.62907 18.0438 4.71385 16.8109 3.9373 15.722C2.35646 13.4991 1.14541 9.40438 2.77247 6.65056C3.57676 5.28265 5.01893 4.41871 6.58127 4.39171C7.76459 4.37371 8.89244 5.17466 9.62277 5.17466C10.3438 5.17466 11.7121 4.21172 13.145 4.35571C13.7459 4.38271 15.4284 4.58969 16.51 6.13759C16.4268 6.19159 14.5039 7.28952 14.5224 9.56636C14.5502 12.2842 16.9723 13.1931 17 13.2021C16.9723 13.2651 16.6117 14.498 15.7242 15.749ZM10.4455 1.34991C11.1204 0.60296 12.239 0.0359976 13.1635 0C13.2836 1.05293 12.8491 2.11486 12.202 2.87081C11.5641 3.63576 10.5103 4.22972 9.47485 4.14872C9.33618 3.11379 9.85388 2.03386 10.4455 1.34991Z" fill="#1B212D"/>
</svg>
