<svg width="20" height="20" viewBox="0 0 20 20" fill="none" xmlns="http://www.w3.org/2000/svg">
<path d="M15.7071 3.70711C16.0976 3.31658 16.0976 2.68342 15.7071 2.29289C15.3166 1.90237 14.6834 1.90237 14.2929 2.29289L8 8.58579L6.70711 7.29289C6.31658 6.90237 5.68342 6.90237 5.29289 7.29289L1.29289 11.2929C0.902369 11.6834 0.902369 12.3166 1.29289 12.7071C1.68342 13.0976 2.31658 13.0976 2.70711 12.7071L6 9.41421L7.29289 10.7071C7.68342 11.0976 8.31658 11.0976 8.70711 10.7071L15.7071 3.70711Z" fill="#1B212D"/>
<path d="M18 14C18.5523 14 19 13.5523 19 13C19 12.4477 18.5523 12 18 12H16V10C16 9.44772 15.5523 9 15 9C14.4477 9 14 9.44772 14 10V12H12C11.4477 12 11 12.4477 11 13C11 13.5523 11.4477 14 12 14H14V16C14 16.5523 14.4477 17 15 17C15.5523 17 16 16.5523 16 16V14H18Z" fill="#1B212D"/>
</svg>
