<svg width="20" height="20" viewBox="0 0 20 20" fill="none" xmlns="http://www.w3.org/2000/svg">
<path fill-rule="evenodd" clip-rule="evenodd" d="M10 18C14.4183 18 18 14.4183 18 10C18 5.58172 14.4183 2 10 2C7.79086 2 5.79086 2.89543 4.34315 4.34315L3.51213 3.51213C3.32314 3.32314 3 3.45699 3 3.72427V6.7C3 6.86569 3.13431 7 3.3 7H6.27574C6.54301 7 6.67686 6.67686 6.48787 6.48787L5.40381 5.40381C6.58007 4.22754 8.20507 3.5 10 3.5C13.5899 3.5 16.5 6.41015 16.5 10C16.5 13.5899 13.5899 16.5 10 16.5C6.41015 16.5 3.5 13.5899 3.5 10H2C2 14.4183 5.58172 18 10 18ZM13.5303 7.53033C13.8232 7.23744 13.8232 6.76256 13.5303 6.46967C13.2374 6.17678 12.7626 6.17678 12.4697 6.46967L9.46967 9.46967L8.93934 10L9.46967 10.5303L11.9697 13.0303C12.2626 13.3232 12.7374 13.3232 13.0303 13.0303C13.3232 12.7374 13.3232 12.2626 13.0303 11.9697L11.0607 10L13.5303 7.53033Z" fill="#1B212D"/>
</svg>
