<svg width="20" height="20" viewBox="0 0 20 20" fill="none" xmlns="http://www.w3.org/2000/svg">
<path d="M5.23123 6.34772C4.92292 6.03941 4.92292 5.53954 5.23123 5.23123C5.53954 4.92292 6.03941 4.92292 6.34772 5.23123L10 8.88352L13.6523 5.23123C13.9606 4.92292 14.4605 4.92292 14.7688 5.23123C15.0771 5.53954 15.0771 6.03941 14.7688 6.34772L11.1165 10L14.7688 13.6523C15.0771 13.9606 15.0771 14.4605 14.7688 14.7688C14.4605 15.0771 13.9606 15.0771 13.6523 14.7688L10 11.1165L6.34772 14.7688C6.03941 15.0771 5.53954 15.0771 5.23123 14.7688C4.92292 14.4605 4.92292 13.9606 5.23123 13.6523L8.88352 10L5.23123 6.34772Z" fill="#1B212D"/>
</svg>
