<svg width="20" height="20" viewBox="0 0 20 20" fill="none" xmlns="http://www.w3.org/2000/svg">
<path d="M16.8573 13L17.9859 7.64062C18.0111 7.5187 18.0024 7.3913 17.9609 7.27484C17.9194 7.15837 17.8469 7.05816 17.7529 6.9871C17.6588 6.91604 17.5475 6.8774 17.4332 6.87613C17.3189 6.87487 17.2069 6.91104 17.1116 6.98L14.1247 9.1575L10.451 3.99125C10.3957 3.91261 10.324 3.84964 10.2419 3.80766C10.1597 3.76567 10.0696 3.7459 9.97898 3.75C9.79555 3.7575 9.62641 3.86125 9.52412 4.02875L6.39154 9.16812L2.85496 6.9575C2.75847 6.89743 2.64808 6.86937 2.53726 6.87675C2.42643 6.88412 2.31997 6.92662 2.23085 6.99904C2.14173 7.07147 2.07381 7.17069 2.03537 7.28462C1.99694 7.39854 1.98964 7.52224 2.01438 7.64062L3.14297 13H16.8573Z" fill="#1B212D"/>
<path d="M16.2716 15.4833L16.5647 14H3.43555L3.7287 15.4833C3.75778 15.6303 3.82871 15.7614 3.92991 15.8552C4.0311 15.9491 4.15657 16.0001 4.28584 16H15.7145C15.8437 16.0001 15.9692 15.9491 16.0704 15.8552C16.1716 15.7614 16.2425 15.6303 16.2716 15.4833Z" fill="#1B212D"/>
</svg>
