<svg width="20" height="20" viewBox="0 0 20 20" fill="none" xmlns="http://www.w3.org/2000/svg">
<path d="M6 3H5C3.34315 3 2 4.34315 2 6L18 6C18 4.34315 16.6569 3 15 3H14C14 3.55228 13.5523 4 13 4C12.4477 4 12 3.55228 12 3H8C8 3.55228 7.55228 4 7 4C6.44772 4 6 3.55228 6 3Z" fill="#1B212D"/>
<path fill-rule="evenodd" clip-rule="evenodd" d="M2 7H18V14C18 15.6569 16.6569 17 15 17H5C3.34315 17 2 15.6569 2 14V7ZM6 12C6.55228 12 7 11.5523 7 11C7 10.4477 6.55228 10 6 10C5.44772 10 5 10.4477 5 11C5 11.5523 5.44772 12 6 12ZM11 11C11 11.5523 10.5523 12 10 12C9.44771 12 9 11.5523 9 11C9 10.4477 9.44771 10 10 10C10.5523 10 11 10.4477 11 11ZM14 12C14.5523 12 15 11.5523 15 11C15 10.4477 14.5523 10 14 10C13.4477 10 13 10.4477 13 11C13 11.5523 13.4477 12 14 12Z" fill="#1B212D"/>
</svg>
