<svg width="20" height="20" viewBox="0 0 20 20" fill="none" xmlns="http://www.w3.org/2000/svg">
<path d="M4.25148 7.2929C4.642 6.90237 5.27517 6.90237 5.66569 7.2929L8.95859 10.5858L8.95859 3C8.95859 2.44771 9.4063 2 9.95859 2C10.5109 2 10.9586 2.44771 10.9586 3L10.9586 10.5858L14.2515 7.2929C14.642 6.90237 15.2752 6.90237 15.6657 7.2929C16.0562 7.68342 16.0562 8.31658 15.6657 8.70711L10.8071 13.5657C10.3385 14.0343 9.57869 14.0343 9.11006 13.5657L4.25148 8.70711C3.86096 8.31659 3.86096 7.68342 4.25148 7.2929Z" fill="#1B212D"/>
<path d="M4 16C3.44772 16 3 16.4477 3 17C3 17.5523 3.44772 18 4 18H16C16.5523 18 17 17.5523 17 17C17 16.4477 16.5523 16 16 16H4Z" fill="#1B212D"/>
</svg>
