<svg width="20" height="20" viewBox="0 0 20 20" fill="none" xmlns="http://www.w3.org/2000/svg">
<path d="M13.653 4.00833C15.003 4.08333 16.3446 4.18333 17.6863 4.31667C17.8525 4.33276 18.0057 4.4133 18.1132 4.54104C18.2207 4.66877 18.2739 4.83353 18.2613 5C18.228 5.325 17.953 5.56667 17.6363 5.56667H17.5696C13.153 5.125 8.75298 4.95833 4.38631 5.39167L2.68631 5.55833C2.33631 5.59167 2.03631 5.34167 2.00298 5C1.96965 4.65833 2.21965 4.35 2.56965 4.31667L4.26965 4.15C5.04465 4.075 5.81965 4.025 6.59465 3.975L6.76965 2.90833C6.90298 2.1 7.08631 1 9.02798 1H11.2113C13.1572 1 13.3439 2.14512 13.4688 2.91177L13.4696 2.91667L13.653 4V4.00833Z" fill="#1B212D"/>
<path fill-rule="evenodd" clip-rule="evenodd" d="M15.3946 6.41667C15.678 6.41667 15.953 6.53333 16.153 6.74167C16.3446 6.95 16.453 7.23333 16.4363 7.53333L15.9196 16.075L15.9195 16.0776C15.8278 17.3522 15.7094 19 12.803 19H7.45298C4.54798 19 4.42825 17.3455 4.33663 16.0794L4.33631 16.075L3.81965 7.525C3.80298 7.23333 3.91131 6.95 4.10298 6.74167C4.29465 6.53333 4.57798 6.41667 4.86131 6.41667H15.3946ZM7 11.5C7 11.2239 7.22386 11 7.5 11H12.5C12.7761 11 13 11.2239 13 11.5C13 11.7761 12.7761 12 12.5 12H7.5C7.22386 12 7 11.7761 7 11.5ZM8.5 14C8.22386 14 8 14.2239 8 14.5C8 14.7761 8.22386 15 8.5 15H11.5C11.7761 15 12 14.7761 12 14.5C12 14.2239 11.7761 14 11.5 14H8.5Z" fill="#1B212D"/>
</svg>
