<svg width="20" height="20" viewBox="0 0 20 20" fill="none" xmlns="http://www.w3.org/2000/svg">
<path d="M3.76669 4.945L1.16086 2.34L2.34003 1.16083L18.8392 17.6608L17.66 18.8392L14.9017 16.0808C13.436 17.0105 11.7356 17.5028 10 17.5C5.50669 17.5 1.76836 14.2667 0.984192 10C1.34255 8.05893 2.31805 6.28575 3.76669 4.945ZM12.2975 13.4767L11.0775 12.2567C10.6109 12.4799 10.0865 12.5529 9.57664 12.4657C9.06677 12.3784 8.59653 12.1351 8.23075 11.7693C7.86497 11.4035 7.62167 10.9333 7.53437 10.4234C7.44708 9.91352 7.5201 9.38913 7.74336 8.9225L6.52336 7.7025C5.99312 8.50374 5.75608 9.46361 5.85238 10.4196C5.94868 11.3755 6.3724 12.2688 7.05179 12.9482C7.73118 13.6276 8.62449 14.0513 9.58045 14.1476C10.5364 14.2439 11.4963 14.0069 12.2975 13.4767ZM6.64503 3.13333C7.68419 2.725 8.81669 2.5 10 2.5C14.4934 2.5 18.2317 5.73333 19.0159 10C18.7605 11.3881 18.1866 12.698 17.3392 13.8267L14.1225 10.61C14.2181 9.96634 14.1615 9.30926 13.9575 8.69138C13.7534 8.0735 13.4074 7.51201 12.9473 7.05189C12.4872 6.59177 11.9257 6.24581 11.3078 6.04173C10.6899 5.83765 10.0328 5.78112 9.38919 5.87667L6.64503 3.13333Z" fill="black"/>
</svg>
