<svg width="20" height="20" viewBox="0 0 20 20" fill="none" xmlns="http://www.w3.org/2000/svg">
<path d="M14.72 14.312C14.512 13.672 13.912 13.2 13.2 13.2H12.4V10.8C12.4 10.5878 12.3157 10.3843 12.1657 10.2343C12.0157 10.0843 11.8122 10 11.6 10H6.8V8.4H8.4C8.61217 8.4 8.81566 8.31571 8.96569 8.16569C9.11571 8.01566 9.2 7.81217 9.2 7.6V6H10.8C11.2243 6 11.6313 5.83143 11.9314 5.53137C12.2314 5.23131 12.4 4.82435 12.4 4.4V4.072C14.744 5.016 16.4 7.312 16.4 10C16.4 11.664 15.76 13.176 14.72 14.312ZM9.2 16.344C6.04 15.952 3.6 13.264 3.6 10C3.6 9.504 3.664 9.024 3.768 8.568L7.6 12.4V13.2C7.6 13.6243 7.76857 14.0313 8.06863 14.3314C8.36869 14.6314 8.77565 14.8 9.2 14.8M10 2C8.94943 2 7.90914 2.20693 6.93853 2.60896C5.96793 3.011 5.08601 3.60028 4.34315 4.34315C2.84285 5.84344 2 7.87827 2 10C2 12.1217 2.84285 14.1566 4.34315 15.6569C5.08601 16.3997 5.96793 16.989 6.93853 17.391C7.90914 17.7931 8.94943 18 10 18C12.1217 18 14.1566 17.1571 15.6569 15.6569C17.1571 14.1566 18 12.1217 18 10C18 8.94943 17.7931 7.90914 17.391 6.93853C16.989 5.96793 16.3997 5.08601 15.6569 4.34315C14.914 3.60028 14.0321 3.011 13.0615 2.60896C12.0909 2.20693 11.0506 2 10 2Z" fill="#1B212D"/>
</svg>
