<svg width="20" height="20" viewBox="0 0 20 20" fill="none" xmlns="http://www.w3.org/2000/svg">
<path d="M8.45734 4.02037C9.23291 2.98271 10.7671 2.98271 11.5427 4.02037C12.6222 5.46467 14.0377 7.42356 15 9C15.8758 10.4347 16.884 12.3843 17.6202 13.8617C18.1742 14.9733 17.5577 16.2757 16.3324 16.4791C14.7855 16.7359 12.5697 17 10 17C7.43034 17 5.21453 16.7359 3.66759 16.4791C2.44231 16.2757 1.82583 14.9733 2.3798 13.8617C3.11601 12.3843 4.12417 10.4347 5 9C5.96234 7.42356 7.37785 5.46467 8.45734 4.02037Z" fill="#F76141"/>
<path fill-rule="evenodd" clip-rule="evenodd" d="M10 7C9.36917 7 8.89604 7.56795 9.01975 8.1767L9.51382 11.6078C9.56017 11.8358 9.76366 12 10 12C10.2363 12 10.4398 11.8358 10.4862 11.6078L10.9802 8.1767C11.104 7.56795 10.6308 7 10 7ZM10 15C10.5523 15 11 14.5523 11 14C11 13.4477 10.5523 13 10 13C9.44772 13 9 13.4477 9 14C9 14.5523 9.44772 15 10 15Z" fill="white"/>
</svg>
