<svg width="20" height="20" viewBox="0 0 20 20" fill="none" xmlns="http://www.w3.org/2000/svg">
<path d="M5 8C4.44772 8 4 7.55228 4 7V5C4 4.44772 4.44772 4 5 4H7C7.55228 4 8 4.44772 8 5C8 5.55228 7.55228 6 7 6H6V7C6 7.55228 5.55228 8 5 8Z" fill="#1B212D"/>
<path d="M5 12C4.44772 12 4 12.4477 4 13V15C4 15.5523 4.44772 16 5 16H7C7.55228 16 8 15.5523 8 15C8 14.4477 7.55228 14 7 14H6V13C6 12.4477 5.55228 12 5 12Z" fill="#1B212D"/>
<path d="M16 13C16 12.4477 15.5523 12 15 12C14.4477 12 14 12.4477 14 13V14H13C12.4477 14 12 14.4477 12 15C12 15.5523 12.4477 16 13 16H15C15.5523 16 16 15.5523 16 15V13Z" fill="#1B212D"/>
<path d="M15 8C15.5523 8 16 7.55228 16 7V5C16 4.44772 15.5523 4 15 4H13C12.4477 4 12 4.44772 12 5C12 5.55228 12.4477 6 13 6H14V7C14 7.55228 14.4477 8 15 8Z" fill="#1B212D"/>
</svg>
