<svg width="20" height="20" viewBox="0 0 20 20" fill="none" xmlns="http://www.w3.org/2000/svg">
<path d="M12.3661 2H7.66224C7.47377 2 7.29968 2.10155 7.20546 2.26667C7.11124 2.43179 7.11121 2.63488 7.20546 2.8L12.5682 12H18.5L12.8224 2.26613C12.776 2.18524 12.7095 2.11808 12.6294 2.07137C12.5494 2.02466 12.4586 2 12.3661 2ZM6.41525 3.59812L1.07112 12.9328C1.02587 13.0117 1.0014 13.101 0.999993 13.1922C0.998698 13.2834 1.0205 13.3734 1.06338 13.4536L3.34168 17.7203C3.38624 17.8038 3.45202 17.8737 3.53223 17.9229C3.61245 17.972 3.70419 17.9986 3.79797 18H3.80571C3.89828 18 3.98922 17.9753 4.0694 17.9285C4.14957 17.8817 4.21617 17.8144 4.26249 17.7333L9.49999 8.5L6.41525 3.59812ZM18.9255 13.2437C18.8787 13.1693 18.8124 13.1078 18.7331 13.0651C18.6537 13.0224 18.564 12.9999 18.4728 13H8.19999L5.35642 18H16.1945C16.2896 18 16.3829 17.9756 16.4646 17.9295C16.5463 17.8833 16.6133 17.8171 16.6585 17.7378L18.9368 13.7378C18.9802 13.6615 19.0019 13.5759 19 13.4893C18.9979 13.4027 18.9723 13.318 18.9255 13.2437Z" fill="#1B212D"/>
</svg>
