<svg width="20" height="20" viewBox="0 0 20 20" fill="none" xmlns="http://www.w3.org/2000/svg">
<path d="M9 7C9 6.44772 9.44772 6 10 6C10.5523 6 11 6.44772 11 7C11 7.55228 10.5523 8 10 8C9.44772 8 9 7.55228 9 7Z" fill="#1B212D"/>
<path d="M9 10.5C9 9.94772 9.44772 9.5 10 9.5C10.5523 9.5 11 9.94772 11 10.5V13C11 13.5523 10.5523 14 10 14C9.44772 14 9 13.5523 9 13V10.5Z" fill="#1B212D"/>
<path fill-rule="evenodd" clip-rule="evenodd" d="M18 10C18 14.4183 14.4183 18 10 18C5.58172 18 2 14.4183 2 10C2 5.58172 5.58172 2 10 2C14.4183 2 18 5.58172 18 10ZM16.5 10C16.5 13.5899 13.5899 16.5 10 16.5C6.41015 16.5 3.5 13.5899 3.5 10C3.5 6.41015 6.41015 3.5 10 3.5C13.5899 3.5 16.5 6.41015 16.5 10Z" fill="#1B212D"/>
</svg>
