<svg width="20" height="20" viewBox="0 0 20 20" fill="none" xmlns="http://www.w3.org/2000/svg">
<g clip-path="url(#clip0_41_184)">
<path d="M20 6C20 3.79086 18.2091 2 16 2H4C1.79086 2 0 3.79086 0 6V14C0 16.2091 1.79086 18 4 18H16C18.2091 18 20 16.2091 20 14V6ZM4.22678 14C3.72749 14 3.44664 13.4257 3.75317 13.0316L6.04251 10.0882C6.27761 9.78592 6.73189 9.77827 6.97705 10.0725L8.52295 11.9275C8.76811 12.2217 9.22239 12.2141 9.45749 11.9118L12.0177 8.62008C12.2606 8.30779 12.734 8.31194 12.9713 8.62844L16.28 13.04C16.5767 13.4355 16.2944 14 15.8 14H4.22678Z" fill="#1B212D"/>
</g>
<defs>
<clipPath id="clip0_41_184">
<rect width="20" height="20" fill="white"/>
</clipPath>
</defs>
</svg>
