<svg width="20" height="20" viewBox="0 0 20 20" fill="none" xmlns="http://www.w3.org/2000/svg">
<path d="M7 6C7 5.44772 7.44772 5 8 5H16C16.5523 5 17 5.44772 17 6C17 6.55228 16.5523 7 16 7H8C7.44772 7 7 6.55228 7 6Z" fill="#1B212D"/>
<path d="M7 10C7 9.44772 7.44772 9 8 9H14C14.5523 9 15 9.44772 15 10C15 10.5523 14.5523 11 14 11H8C7.44772 11 7 10.5523 7 10Z" fill="#1B212D"/>
<path d="M4 13C3.44772 13 3 13.4477 3 14C3 14.5523 3.44772 15 4 15C4.55228 15 5 14.5523 5 14C5 13.4477 4.55228 13 4 13Z" fill="#1B212D"/>
<path d="M8 13C7.44772 13 7 13.4477 7 14C7 14.5523 7.44772 15 8 15H15C15.5523 15 16 14.5523 16 14C16 13.4477 15.5523 13 15 13H8Z" fill="#1B212D"/>
<path d="M4 9C3.44772 9 3 9.44772 3 10C3 10.5523 3.44772 11 4 11C4.55228 11 5 10.5523 5 10C5 9.44772 4.55228 9 4 9Z" fill="#1B212D"/>
<path d="M4 5C3.44772 5 3 5.44772 3 6C3 6.55228 3.44772 7 4 7C4.55228 7 5 6.55228 5 6C5 5.44772 4.55228 5 4 5Z" fill="#1B212D"/>
</svg>
