<svg width="20" height="20" viewBox="0 0 20 20" fill="none" xmlns="http://www.w3.org/2000/svg">
<path d="M10 6C10 5.44772 10.4477 5 11 5H14C14.5523 5 15 5.44772 15 6C15 6.55228 14.5523 7 14 7H11C10.4477 7 10 6.55228 10 6Z" fill="#1B212D"/>
<path d="M3 9C2.44772 9 2 9.44772 2 10C2 10.5523 2.44772 11 3 11H10C10.5523 11 11 10.5523 11 10C11 9.44772 10.5523 9 10 9H3Z" fill="#1B212D"/>
<path d="M14 9C13.4477 9 13 9.44772 13 10C13 10.5523 13.4477 11 14 11H17C17.5523 11 18 10.5523 18 10C18 9.44772 17.5523 9 17 9H14Z" fill="#1B212D"/>
<path d="M2 14C2 13.4477 2.44772 13 3 13H5C5.55228 13 6 13.4477 6 14C6 14.5523 5.55228 15 5 15H3C2.44772 15 2 14.5523 2 14Z" fill="#1B212D"/>
<path d="M9 13C8.44772 13 8 13.4477 8 14C8 14.5523 8.44772 15 9 15H12C12.5523 15 13 14.5523 13 14C13 13.4477 12.5523 13 12 13H9Z" fill="#1B212D"/>
<path d="M3 5C2.44772 5 2 5.44772 2 6C2 6.55228 2.44772 7 3 7H7C7.55228 7 8 6.55228 8 6C8 5.44772 7.55228 5 7 5H3Z" fill="#1B212D"/>
</svg>
