<svg width="20" height="20" viewBox="0 0 20 20" fill="none" xmlns="http://www.w3.org/2000/svg">
<path d="M7.01226 5C8.64499 5 10.0499 5.97525 10.6763 7.375H12.7989C12.086 4.85023 9.76518 3 7.01226 3C3.69178 3 1 5.69178 1 9.01225V10.9877C1 14.3082 3.69178 17 7.01226 17C9.76518 17 12.086 15.1498 12.7989 12.625H10.6763C10.0499 14.0247 8.64499 15 7.01226 15C4.79635 15 3 13.2037 3 10.9877V9.01225C3 6.79635 4.79635 5 7.01226 5Z" fill="#1B212D"/>
<path d="M15 6.62419C15 6.37264 15.291 6.23278 15.4874 6.38993L19.512 9.60957C19.7622 9.80973 19.7622 10.1903 19.512 10.3904L15.4874 13.6101C15.291 13.7672 15 13.6274 15 13.3758V11H8C7.44771 11 7 10.5523 7 10C7 9.44771 7.44772 9 8 9H15L15 6.62419Z" fill="#1B212D"/>
</svg>
