<svg width="20" height="20" viewBox="0 0 20 20" fill="none" xmlns="http://www.w3.org/2000/svg">
<path fill-rule="evenodd" clip-rule="evenodd" d="M7 7V6C7 4.34315 8.34315 3 10 3C11.6569 3 13 4.34315 13 6V7C14.1046 7 15 7.89543 15 9V13C15 14.1046 14.1046 15 13 15H7C5.89543 15 5 14.1046 5 13V9C5 7.89543 5.89543 7 7 7ZM11.5 7V6C11.5 5.17157 10.8284 4.5 10 4.5C9.17157 4.5 8.5 5.17157 8.5 6V7H11.5ZM9 11C9 10.4477 9.44772 10 10 10C10.5523 10 11 10.4477 11 11C11 11.5523 10.5523 12 10 12C9.44772 12 9 11.5523 9 11Z" fill="#1B212D"/>
</svg>
