<svg width="20" height="20" viewBox="0 0 20 20" fill="none" xmlns="http://www.w3.org/2000/svg">
<path fill-rule="evenodd" clip-rule="evenodd" d="M14 7H15C16.1046 7 17 7.89543 17 9V16C17 17.1046 16.1046 18 15 18H5C3.89543 18 3 17.1046 3 16V9C3 7.89543 3.89543 7 5 7H6V5C6 2.79086 7.79086 1 10 1C12.2091 1 14 2.79086 14 5V7ZM12.5 5V7H7.5V5C7.5 3.61929 8.61929 2.5 10 2.5C11.3807 2.5 12.5 3.61929 12.5 5ZM9 11C9 10.4477 9.44772 10 10 10C10.5523 10 11 10.4477 11 11V13C11 13.5523 10.5523 14 10 14C9.44772 14 9 13.5523 9 13V11Z" fill="#1B212D"/>
</svg>
