<svg width="20" height="20" viewBox="0 0 20 20" fill="none" xmlns="http://www.w3.org/2000/svg">
<path d="M5 5C4.44772 5 4 5.44772 4 6C4 6.55228 4.44772 7 5 7H15C15.5523 7 16 6.55228 16 6C16 5.44772 15.5523 5 15 5H5Z" fill="#1B212D"/>
<path d="M4 10C4 9.44772 4.44772 9 5 9H11C11.5523 9 12 9.44772 12 10C12 10.5523 11.5523 11 11 11H5C4.44772 11 4 10.5523 4 10Z" fill="#1B212D"/>
<path d="M4 14C4 13.4477 4.44772 13 5 13H13C13.5523 13 14 13.4477 14 14C14 14.5523 13.5523 15 13 15H5C4.44772 15 4 14.5523 4 14Z" fill="#1B212D"/>
</svg>
