<svg width="20" height="20" viewBox="0 0 20 20" fill="none" xmlns="http://www.w3.org/2000/svg">
<path fill-rule="evenodd" clip-rule="evenodd" d="M11.7354 3.728C11.4767 3.294 11.0082 3 10.4907 3H9.50481C8.99437 3.014 8.52589 3.294 8.26717 3.728C8.13432 3.938 8.0574 4.197 8.07138 4.47C8.08537 4.68 8.02244 4.89 7.91056 5.086C7.55395 5.681 6.76382 5.905 6.15548 5.569C5.45625 5.163 4.5892 5.408 4.18364 6.101L3.71516 6.927C3.31659 7.62 3.54035 8.509 4.23259 8.908C4.82694 9.265 5.03671 10.056 4.68709 10.658C4.56822 10.847 4.44236 11.008 4.24657 11.106C4.00883 11.239 3.79906 11.449 3.68719 11.659C3.42847 12.093 3.44245 12.639 3.70117 13.094L4.18364 13.934C4.44236 14.382 4.92483 14.662 5.42828 14.662C5.66602 14.662 5.94571 14.592 6.16947 14.452C6.34428 14.333 6.55405 14.291 6.78479 14.291C7.47704 14.291 8.0574 14.872 8.07138 15.565C8.07138 16.37 8.71468 17 9.52579 17H10.4767C11.2809 17 11.9242 16.37 11.9242 15.565C11.9451 14.872 12.5255 14.291 13.2177 14.291C13.4415 14.291 13.6513 14.333 13.8331 14.452C14.0568 14.592 14.3295 14.662 14.5743 14.662C15.0707 14.662 15.5532 14.382 15.8119 13.934L16.3014 13.094C16.5531 12.625 16.5741 12.093 16.3154 11.659C16.1825 11.449 15.9937 11.239 15.749 11.106C15.5532 11.008 15.4273 10.847 15.3154 10.658C14.9588 10.056 15.1686 9.265 15.763 8.908C16.4622 8.509 16.6859 7.62 16.2804 6.927L15.8119 6.101C15.4133 5.408 14.5393 5.163 13.8471 5.569C13.2317 5.905 12.4416 5.681 12.085 5.086C11.9731 4.89 11.9102 4.68 11.9242 4.47C11.9451 4.197 11.8612 3.938 11.7354 3.728ZM10 12C11.1046 12 12 11.1046 12 10C12 8.89543 11.1046 8 10 8C8.89543 8 8 8.89543 8 10C8 11.1046 8.89543 12 10 12Z" fill="#1B212D"/>
</svg>
