<svg width="20" height="20" viewBox="0 0 20 20" fill="none" xmlns="http://www.w3.org/2000/svg">
<path d="M6 6C5.44772 6 5 6.44772 5 7C5 7.55228 5.44772 8 6 8H14C14.5523 8 15 7.55228 15 7C15 6.44772 14.5523 6 14 6H6Z" fill="#1B212D"/>
<path d="M5 11C5 10.4477 5.44772 10 6 10H11C11.5523 10 12 10.4477 12 11C12 11.5523 11.5523 12 11 12H6C5.44772 12 5 11.5523 5 11Z" fill="#1B212D"/>
<path d="M5 15C5 14.4477 5.44772 14 6 14H9C9.55228 14 10 14.4477 10 15C10 15.5523 9.55228 16 9 16H6C5.44772 16 5 15.5523 5 15Z" fill="#1B212D"/>
</svg>
