<svg width="14" height="15" viewBox="0 0 14 15" fill="none" xmlns="http://www.w3.org/2000/svg">
<path fill-rule="evenodd" clip-rule="evenodd" d="M9.5 5.5C9.5 7.70914 7.70914 9.5 5.5 9.5C3.29086 9.5 1.5 7.70914 1.5 5.5C1.5 3.29086 3.29086 1.5 5.5 1.5C7.70914 1.5 9.5 3.29086 9.5 5.5ZM8.28962 10.2411C7.47176 10.7233 6.51819 11 5.5 11C2.46243 11 0 8.53757 0 5.5C0 2.46243 2.46243 0 5.5 0C8.53757 0 11 2.46243 11 5.5C11 7.00927 10.3921 8.37655 9.40774 9.37034C9.45115 9.39851 9.49227 9.43161 9.53033 9.46967L13.0303 12.9697C13.3232 13.2626 13.3232 13.7374 13.0303 14.0303C12.7374 14.3232 12.2626 14.3232 11.9697 14.0303L8.46967 10.5303C8.38542 10.4461 8.3254 10.3468 8.28962 10.2411Z" fill="black" fill-opacity="0.3"/>
</svg>
