<svg width="20" height="20" viewBox="0 0 20 20" fill="none" xmlns="http://www.w3.org/2000/svg">
<path d="M5 7C5 6.44772 5.44772 6 6 6H9C9.55228 6 10 6.44772 10 7C10 7.55228 9.55228 8 9 8H6C5.44772 8 5 7.55228 5 7Z" fill="#1B212D"/>
<path d="M5 11C5 10.4477 5.44772 10 6 10H11C11.5523 10 12 10.4477 12 11C12 11.5523 11.5523 12 11 12H6C5.44772 12 5 11.5523 5 11Z" fill="#1B212D"/>
<path d="M6 14C5.44772 14 5 14.4477 5 15C5 15.5523 5.44772 16 6 16H14C14.5523 16 15 15.5523 15 15C15 14.4477 14.5523 14 14 14H6Z" fill="#1B212D"/>
</svg>
