<svg width="20" height="20" viewBox="0 0 20 20" fill="none" xmlns="http://www.w3.org/2000/svg">
<path fill-rule="evenodd" clip-rule="evenodd" d="M13.5 8.5C13.5 10.7091 11.7091 12.5 9.5 12.5C7.29086 12.5 5.5 10.7091 5.5 8.5C5.5 6.29086 7.29086 4.5 9.5 4.5C11.7091 4.5 13.5 6.29086 13.5 8.5ZM12.2896 13.2411C11.4718 13.7233 10.5182 14 9.5 14C6.46243 14 4 11.5376 4 8.5C4 5.46243 6.46243 3 9.5 3C12.5376 3 15 5.46243 15 8.5C15 10.0093 14.3921 11.3766 13.4077 12.3703C13.4511 12.3985 13.4923 12.4316 13.5303 12.4697L17.0303 15.9697C17.3232 16.2626 17.3232 16.7374 17.0303 17.0303C16.7374 17.3232 16.2626 17.3232 15.9697 17.0303L12.4697 13.5303C12.3854 13.4461 12.3254 13.3468 12.2896 13.2411Z" fill="#1B212D"/>
</svg>
