<svg width="20" height="20" viewBox="0 0 20 20" fill="none" xmlns="http://www.w3.org/2000/svg">
<rect width="20" height="20" fill="#DDDDDD"/>
<path d="M-70 -50C-70 -61.0457 -61.0457 -70 -50 -70H162C173.046 -70 182 -61.0457 182 -50V173C182 184.046 173.046 193 162 193H-50C-61.0457 193 -70 184.046 -70 173V-50Z" fill="#F7F7F7"/>
<rect x="-19.5" y="-19.5" width="59" height="99" rx="4.5" fill="#FAFAFA"/>
<g clip-path="url(#clip0_2982_1279)">
<circle cx="10" cy="10" r="8" fill="#6DB90C"/>
<path d="M9.49999 14.21L5.39499 10.105L6.80999 8.69L9.49999 11.385L14.44 6.44L15.855 7.855L9.49999 14.21Z" fill="white"/>
</g>
<rect x="-19.5" y="-19.5" width="59" height="99" rx="4.5" stroke="#9747FF" stroke-dasharray="10 5"/>
<defs>
<clipPath id="clip0_2982_1279">
<rect width="20" height="20" fill="white"/>
</clipPath>
</defs>
</svg>
