<svg width="14" height="14" viewBox="0 0 14 14" fill="none" xmlns="http://www.w3.org/2000/svg">
<path fill-rule="evenodd" clip-rule="evenodd" d="M7 14C10.866 14 14 10.866 14 7C14 3.13401 10.866 0 7 0C3.13401 0 0 3.13401 0 7C0 10.866 3.13401 14 7 14ZM3.64645 3.64645C3.45118 3.84171 3.45118 4.15829 3.64645 4.35355L6.29289 7L3.64645 9.64645C3.45118 9.84171 3.45118 10.1583 3.64645 10.3536C3.84171 10.5488 4.15829 10.5488 4.35355 10.3536L7 7.70711L9.64645 10.3536C9.84171 10.5488 10.1583 10.5488 10.3536 10.3536C10.5488 10.1583 10.5488 9.84171 10.3536 9.64645L7.70711 7L10.3536 4.35355C10.5488 4.15829 10.5488 3.84171 10.3536 3.64645C10.1583 3.45118 9.84171 3.45118 9.64645 3.64645L7 6.29289L4.35355 3.64645C4.15829 3.45118 3.84171 3.45118 3.64645 3.64645Z" fill="black" fill-opacity="0.3"/>
</svg>
